<?xml version="1.0" encoding="UTF-8" standalone="no"?>
<!DOCTYPE svg PUBLIC "-//W3C//DTD SVG 1.1//EN"
 "http://www.w3.org/Graphics/SVG/1.1/DTD/svg11.dtd">
<!-- Generated by graphviz version 2.40.1 (20161225.0304)
 -->
<!-- Title: PB1 Pages: 1 -->
<svg width="1847pt" height="207pt"
 viewBox="0.00 0.00 1846.58 207.00" xmlns="http://www.w3.org/2000/svg" xmlns:xlink="http://www.w3.org/1999/xlink">
<g id="graph0" class="graph" transform="scale(1 1) rotate(0) translate(4 203)">
<title>PB1</title>
<polygon fill="#ffffff" stroke="transparent" points="-4,4 -4,-203 1842.5802,-203 1842.5802,4 -4,4"/>
<g id="clust1" class="cluster">
<title>cluster3</title>
<path fill="none" stroke="#000000" d="M1373.0923,-44C1373.0923,-44 1543.0923,-44 1543.0923,-44 1549.0923,-44 1555.0923,-50 1555.0923,-56 1555.0923,-56 1555.0923,-179 1555.0923,-179 1555.0923,-185 1549.0923,-191 1543.0923,-191 1543.0923,-191 1373.0923,-191 1373.0923,-191 1367.0923,-191 1361.0923,-185 1361.0923,-179 1361.0923,-179 1361.0923,-56 1361.0923,-56 1361.0923,-50 1367.0923,-44 1373.0923,-44"/>
<text text-anchor="middle" x="1543.0923" y="-51.8" font-family="Times,serif" font-size="14.00" fill="#000000">3</text>
</g>
<!-- PB1_period -->
<g id="node1" class="node">
<title>PB1_period</title>
<polygon fill="none" stroke="#000000" points="1763.0923,-111 1589.0923,-111 1589.0923,-75 1763.0923,-75 1763.0923,-111"/>
<text text-anchor="middle" x="1676.0923" y="-89.3" font-family="Times,serif" font-size="14.00" fill="#000000">PB1_period ~ Deterministic</text>
</g>
<!-- PB1_obs -->
<g id="node5" class="node">
<title>PB1_obs</title>
<polygon fill="none" stroke="#000000" points="1006.0923,-36 848.0923,-36 848.0923,0 1006.0923,0 1006.0923,-36"/>
<text text-anchor="middle" x="927.0923" y="-14.3" font-family="Times,serif" font-size="14.00" fill="#000000">PB1_obs ~ Deterministic</text>
</g>
<!-- PB1_period&#45;&gt;PB1_obs -->
<g id="edge6" class="edge">
<title>PB1_period&#45;&gt;PB1_obs</title>
<path fill="none" stroke="#000000" d="M1642.0888,-74.9572C1619.2916,-63.8268 1588.2202,-50.4788 1559.0923,-44 1507.695,-32.5679 1178.5896,-23.6722 1016.7281,-19.929"/>
<polygon fill="#000000" stroke="#000000" points="1016.3909,-16.4204 1006.3132,-19.6899 1016.2302,-23.4185 1016.3909,-16.4204"/>
</g>
<!-- PB1_logP -->
<g id="node2" class="node">
<title>PB1_logP</title>
<ellipse fill="none" stroke="#000000" cx="1702.0923" cy="-165" rx="136.4758" ry="18"/>
<text text-anchor="middle" x="1702.0923" y="-161.3" font-family="Times,serif" font-size="14.00" fill="#000000">PB1_logP ~ _ContinuousBounded</text>
</g>
<!-- PB1_logP&#45;&gt;PB1_period -->
<g id="edge1" class="edge">
<title>PB1_logP&#45;&gt;PB1_period</title>
<path fill="none" stroke="#000000" d="M1695.5314,-146.8314C1692.6896,-138.9617 1689.2985,-129.5712 1686.1504,-120.8533"/>
<polygon fill="#000000" stroke="#000000" points="1689.43,-119.63 1682.7415,-111.4133 1682.8461,-122.0076 1689.43,-119.63"/>
</g>
<!-- PB1_omega -->
<g id="node3" class="node">
<title>PB1_omega</title>
<ellipse fill="none" stroke="#000000" cx="87.0923" cy="-93" rx="87.1846" ry="18"/>
<text text-anchor="middle" x="87.0923" y="-89.3" font-family="Times,serif" font-size="14.00" fill="#000000">PB1_omega ~ Angle</text>
</g>
<!-- PB1_omega&#45;&gt;PB1_obs -->
<g id="edge7" class="edge">
<title>PB1_omega&#45;&gt;PB1_obs</title>
<path fill="none" stroke="#000000" d="M113.142,-75.7371C131.7748,-64.4071 157.9132,-50.5216 183.0923,-44 244.8353,-28.008 653.7034,-21.2197 837.6742,-18.9497"/>
<polygon fill="#000000" stroke="#000000" points="837.9066,-22.4472 847.8633,-18.8257 837.8214,-15.4477 837.9066,-22.4472"/>
</g>
<!-- PB1_phi -->
<g id="node4" class="node">
<title>PB1_phi</title>
<ellipse fill="none" stroke="#000000" cx="266.0923" cy="-93" rx="74.187" ry="18"/>
<text text-anchor="middle" x="266.0923" y="-89.3" font-family="Times,serif" font-size="14.00" fill="#000000">PB1_phi ~ Angle</text>
</g>
<!-- PB1_phi&#45;&gt;PB1_obs -->
<g id="edge8" class="edge">
<title>PB1_phi&#45;&gt;PB1_obs</title>
<path fill="none" stroke="#000000" d="M288.2856,-75.806C304.2445,-64.5077 326.7982,-50.6316 349.0923,-44 394.5331,-30.4831 687.2885,-22.7626 837.882,-19.6404"/>
<polygon fill="#000000" stroke="#000000" points="838.1065,-23.1366 848.0327,-19.4324 837.963,-16.1381 838.1065,-23.1366"/>
</g>
<!-- PB1_asini -->
<g id="node6" class="node">
<title>PB1_asini</title>
<polygon fill="none" stroke="#000000" points="523.5923,-111 358.5923,-111 358.5923,-75 523.5923,-75 523.5923,-111"/>
<text text-anchor="middle" x="441.0923" y="-89.3" font-family="Times,serif" font-size="14.00" fill="#000000">PB1_asini ~ Deterministic</text>
</g>
<!-- PB1_asini&#45;&gt;PB1_obs -->
<g id="edge10" class="edge">
<title>PB1_asini&#45;&gt;PB1_obs</title>
<path fill="none" stroke="#000000" d="M467.5763,-74.9955C485.2981,-63.9564 509.5977,-50.6961 533.0923,-44 588.1694,-28.3028 739.1929,-22.0203 837.455,-19.5498"/>
<polygon fill="#000000" stroke="#000000" points="837.7703,-23.0433 847.6824,-19.3016 837.6004,-16.0454 837.7703,-23.0433"/>
</g>
<!-- PB1_eccen -->
<g id="node7" class="node">
<title>PB1_eccen</title>
<ellipse fill="none" stroke="#000000" cx="634.0923" cy="-93" rx="92.0841" ry="18"/>
<text text-anchor="middle" x="634.0923" y="-89.3" font-family="Times,serif" font-size="14.00" fill="#000000">PB1_eccen ~ Uniform</text>
</g>
<!-- PB1_eccen&#45;&gt;PB1_obs -->
<g id="edge11" class="edge">
<title>PB1_eccen&#45;&gt;PB1_obs</title>
<path fill="none" stroke="#000000" d="M663.1375,-75.8427C682.7985,-65.0096 709.7175,-51.6592 735.0923,-44 767.9238,-34.09 805.0572,-27.9497 837.8587,-24.1482"/>
<polygon fill="#000000" stroke="#000000" points="838.3338,-27.6171 847.8898,-23.0419 837.5664,-20.6593 838.3338,-27.6171"/>
</g>
<!-- PB1_logasini -->
<g id="node8" class="node">
<title>PB1_logasini</title>
<ellipse fill="none" stroke="#000000" cx="441.0923" cy="-165" rx="148.6738" ry="18"/>
<text text-anchor="middle" x="441.0923" y="-161.3" font-family="Times,serif" font-size="14.00" fill="#000000">PB1_logasini ~ _ContinuousBounded</text>
</g>
<!-- PB1_logasini&#45;&gt;PB1_asini -->
<g id="edge2" class="edge">
<title>PB1_logasini&#45;&gt;PB1_asini</title>
<path fill="none" stroke="#000000" d="M441.0923,-146.8314C441.0923,-139.131 441.0923,-129.9743 441.0923,-121.4166"/>
<polygon fill="#000000" stroke="#000000" points="444.5924,-121.4132 441.0923,-111.4133 437.5924,-121.4133 444.5924,-121.4132"/>
</g>
<!-- PB1_mean -->
<g id="node9" class="node">
<title>PB1_mean</title>
<ellipse fill="none" stroke="#000000" cx="832.0923" cy="-93" rx="87.9851" ry="18"/>
<text text-anchor="middle" x="832.0923" y="-89.3" font-family="Times,serif" font-size="14.00" fill="#000000">PB1_mean ~ Normal</text>
</g>
<!-- PB1_mean&#45;&gt;PB1_obs -->
<g id="edge12" class="edge">
<title>PB1_mean&#45;&gt;PB1_obs</title>
<path fill="none" stroke="#000000" d="M854.6059,-75.226C866.9651,-65.4688 882.4793,-53.2208 895.9803,-42.5621"/>
<polygon fill="#000000" stroke="#000000" points="898.4002,-45.1109 904.0803,-36.1674 894.0627,-39.6168 898.4002,-45.1109"/>
</g>
<!-- PB1_logpower -->
<g id="node10" class="node">
<title>PB1_logpower</title>
<ellipse fill="none" stroke="#000000" cx="874.0923" cy="-165" rx="102.8821" ry="18"/>
<text text-anchor="middle" x="874.0923" y="-161.3" font-family="Times,serif" font-size="14.00" fill="#000000">PB1_logpower ~ Normal</text>
</g>
<!-- PB1_logS0 -->
<g id="node11" class="node">
<title>PB1_logS0</title>
<polygon fill="none" stroke="#000000" points="1108.5923,-111 937.5923,-111 937.5923,-75 1108.5923,-75 1108.5923,-111"/>
<text text-anchor="middle" x="1023.0923" y="-89.3" font-family="Times,serif" font-size="14.00" fill="#000000">PB1_logS0 ~ Deterministic</text>
</g>
<!-- PB1_logpower&#45;&gt;PB1_logS0 -->
<g id="edge4" class="edge">
<title>PB1_logpower&#45;&gt;PB1_logS0</title>
<path fill="none" stroke="#000000" d="M909.4032,-147.937C929.5083,-138.2218 954.9366,-125.9343 976.6441,-115.4448"/>
<polygon fill="#000000" stroke="#000000" points="978.212,-118.5744 985.6931,-111.0721 975.1664,-112.2716 978.212,-118.5744"/>
</g>
<!-- PB1_logS0&#45;&gt;PB1_obs -->
<g id="edge13" class="edge">
<title>PB1_logS0&#45;&gt;PB1_obs</title>
<path fill="none" stroke="#000000" d="M999.8534,-74.8446C987.4459,-65.1513 971.9988,-53.0832 958.5332,-42.5632"/>
<polygon fill="#000000" stroke="#000000" points="960.485,-39.6466 950.4499,-36.2482 956.1754,-45.1627 960.485,-39.6466"/>
</g>
<!-- PB1_logw0 -->
<g id="node12" class="node">
<title>PB1_logw0</title>
<ellipse fill="none" stroke="#000000" cx="1137.0923" cy="-165" rx="142.1749" ry="18"/>
<text text-anchor="middle" x="1137.0923" y="-161.3" font-family="Times,serif" font-size="14.00" fill="#000000">PB1_logw0 ~ _ContinuousBounded</text>
</g>
<!-- PB1_logw0&#45;&gt;PB1_obs -->
<g id="edge14" class="edge">
<title>PB1_logw0&#45;&gt;PB1_obs</title>
<path fill="none" stroke="#000000" d="M1140.062,-146.8473C1143.2779,-120.2308 1144.7194,-70.8693 1117.0923,-44 1109.4488,-36.5662 1061.8801,-30.0618 1016.2567,-25.4181"/>
<polygon fill="#000000" stroke="#000000" points="1016.5585,-21.9309 1006.2617,-24.4263 1015.8672,-28.8967 1016.5585,-21.9309"/>
</g>
<!-- PB1_logw0&#45;&gt;PB1_logS0 -->
<g id="edge5" class="edge">
<title>PB1_logw0&#45;&gt;PB1_logS0</title>
<path fill="none" stroke="#000000" d="M1108.9125,-147.2022C1094.2255,-137.9262 1076.0742,-126.4623 1060.2528,-116.4698"/>
<polygon fill="#000000" stroke="#000000" points="1062.0636,-113.4739 1051.7397,-111.0931 1058.3256,-119.3923 1062.0636,-113.4739"/>
</g>
<!-- PB1_logs_lc -->
<g id="node13" class="node">
<title>PB1_logs_lc</title>
<ellipse fill="none" stroke="#000000" cx="1259.0923" cy="-93" rx="94.4839" ry="18"/>
<text text-anchor="middle" x="1259.0923" y="-89.3" font-family="Times,serif" font-size="14.00" fill="#000000">PB1_logs_lc ~ Normal</text>
</g>
<!-- PB1_logs_lc&#45;&gt;PB1_obs -->
<g id="edge15" class="edge">
<title>PB1_logs_lc&#45;&gt;PB1_obs</title>
<path fill="none" stroke="#000000" d="M1228.3975,-75.9701C1207.2917,-65.0468 1178.2725,-51.5441 1151.0923,-44 1126.2034,-37.0919 1067.4596,-30.3976 1016.374,-25.532"/>
<polygon fill="#000000" stroke="#000000" points="1016.5546,-22.0336 1006.2712,-24.5837 1015.9004,-29.003 1016.5546,-22.0336"/>
</g>
<!-- PB1_nu -->
<g id="node14" class="node">
<title>PB1_nu</title>
<polygon fill="none" stroke="#000000" points="1528.0923,-111 1376.0923,-111 1376.0923,-75 1528.0923,-75 1528.0923,-111"/>
<text text-anchor="middle" x="1452.0923" y="-89.3" font-family="Times,serif" font-size="14.00" fill="#000000">PB1_nu ~ Deterministic</text>
</g>
<!-- PB1_nu&#45;&gt;PB1_obs -->
<g id="edge9" class="edge">
<title>PB1_nu&#45;&gt;PB1_obs</title>
<path fill="none" stroke="#000000" d="M1426.2537,-74.9428C1408.9457,-63.8819 1385.1801,-50.6174 1362.0923,-44 1329.8943,-34.7715 1134.0856,-25.8691 1016.4298,-21.2577"/>
<polygon fill="#000000" stroke="#000000" points="1016.4759,-17.757 1006.3474,-20.8655 1016.2038,-24.7517 1016.4759,-17.757"/>
</g>
<!-- PB1_lognu -->
<g id="node15" class="node">
<title>PB1_lognu</title>
<ellipse fill="none" stroke="#000000" cx="1458.0923" cy="-165" rx="89.0842" ry="18"/>
<text text-anchor="middle" x="1458.0923" y="-161.3" font-family="Times,serif" font-size="14.00" fill="#000000">PB1_lognu ~ Normal</text>
</g>
<!-- PB1_lognu&#45;&gt;PB1_nu -->
<g id="edge3" class="edge">
<title>PB1_lognu&#45;&gt;PB1_nu</title>
<path fill="none" stroke="#000000" d="M1456.5782,-146.8314C1455.9365,-139.131 1455.1735,-129.9743 1454.4603,-121.4166"/>
<polygon fill="#000000" stroke="#000000" points="1457.9452,-121.088 1453.6267,-111.4133 1450.9693,-121.6694 1457.9452,-121.088"/>
</g>
</g>
</svg>
