<?xml version="1.0" encoding="UTF-8" standalone="no"?>
<!DOCTYPE svg PUBLIC "-//W3C//DTD SVG 1.1//EN"
 "http://www.w3.org/Graphics/SVG/1.1/DTD/svg11.dtd">
<!-- Generated by graphviz version 2.40.1 (20161225.0304)
 -->
<!-- Title: PB1 Pages: 1 -->
<svg width="1537pt" height="254pt"
 viewBox="0.00 0.00 1537.29 254.00" xmlns="http://www.w3.org/2000/svg" xmlns:xlink="http://www.w3.org/1999/xlink">
<g id="graph0" class="graph" transform="scale(1 1) rotate(0) translate(4 250)">
<title>PB1</title>
<polygon fill="#ffffff" stroke="transparent" points="-4,4 -4,-250 1533.2918,-250 1533.2918,4 -4,4"/>
<g id="clust1" class="cluster">
<title>cluster3</title>
<path fill="none" stroke="#000000" d="M1339.2918,-91C1339.2918,-91 1509.2918,-91 1509.2918,-91 1515.2918,-91 1521.2918,-97 1521.2918,-103 1521.2918,-103 1521.2918,-226 1521.2918,-226 1521.2918,-232 1515.2918,-238 1509.2918,-238 1509.2918,-238 1339.2918,-238 1339.2918,-238 1333.2918,-238 1327.2918,-232 1327.2918,-226 1327.2918,-226 1327.2918,-103 1327.2918,-103 1327.2918,-97 1333.2918,-91 1339.2918,-91"/>
<text text-anchor="middle" x="1509.2918" y="-98.8" font-family="Times,serif" font-size="14.00" fill="#000000">3</text>
</g>
<g id="clust2" class="cluster">
<title>cluster65,266</title>
<path fill="none" stroke="#000000" d="M667.2918,-8C667.2918,-8 821.2918,-8 821.2918,-8 827.2918,-8 833.2918,-14 833.2918,-20 833.2918,-20 833.2918,-71 833.2918,-71 833.2918,-77 827.2918,-83 821.2918,-83 821.2918,-83 667.2918,-83 667.2918,-83 661.2918,-83 655.2918,-77 655.2918,-71 655.2918,-71 655.2918,-20 655.2918,-20 655.2918,-14 661.2918,-8 667.2918,-8"/>
<text text-anchor="middle" x="805.7918" y="-15.8" font-family="Times,serif" font-size="14.00" fill="#000000">65,266</text>
</g>
<!-- PB1_eccen -->
<g id="node1" class="node">
<title>PB1_eccen</title>
<ellipse fill="none" stroke="#000000" cx="92.2918" cy="-140" rx="92.0841" ry="18"/>
<text text-anchor="middle" x="92.2918" y="-136.3" font-family="Times,serif" font-size="14.00" fill="#000000">PB1_eccen ~ Uniform</text>
</g>
<!-- PB1_obs -->
<g id="node12" class="node">
<title>PB1_obs</title>
<ellipse fill="#d3d3d3" stroke="#000000" cx="744.2918" cy="-57" rx="80.6858" ry="18"/>
<text text-anchor="middle" x="744.2918" y="-53.3" font-family="Times,serif" font-size="14.00" fill="#000000">PB1_obs ~ Normal</text>
</g>
<!-- PB1_eccen&#45;&gt;PB1_obs -->
<g id="edge4" class="edge">
<title>PB1_eccen&#45;&gt;PB1_obs</title>
<path fill="none" stroke="#000000" d="M120.3046,-122.717C139.9605,-111.5329 167.2775,-97.8275 193.2918,-91 277.5417,-68.8886 519.927,-61.0359 653.4171,-58.341"/>
<polygon fill="#000000" stroke="#000000" points="653.6944,-61.8363 663.6238,-58.1407 653.557,-54.8377 653.6944,-61.8363"/>
</g>
<!-- PB1_period -->
<g id="node2" class="node">
<title>PB1_period</title>
<polygon fill="none" stroke="#000000" points="376.2918,-158 202.2918,-158 202.2918,-122 376.2918,-122 376.2918,-158"/>
<text text-anchor="middle" x="289.2918" y="-136.3" font-family="Times,serif" font-size="14.00" fill="#000000">PB1_period ~ Deterministic</text>
</g>
<!-- PB1_period&#45;&gt;PB1_obs -->
<g id="edge5" class="edge">
<title>PB1_period&#45;&gt;PB1_obs</title>
<path fill="none" stroke="#000000" d="M317.5157,-121.9949C336.042,-111.1031 361.2162,-98.0062 385.2918,-91 434.2013,-76.767 565.9894,-66.8906 655.5287,-61.5831"/>
<polygon fill="#000000" stroke="#000000" points="655.9068,-65.0671 665.6857,-60.9899 655.4986,-58.079 655.9068,-65.0671"/>
</g>
<!-- PB1_phi -->
<g id="node3" class="node">
<title>PB1_phi</title>
<ellipse fill="none" stroke="#000000" cx="468.2918" cy="-140" rx="74.187" ry="18"/>
<text text-anchor="middle" x="468.2918" y="-136.3" font-family="Times,serif" font-size="14.00" fill="#000000">PB1_phi ~ Angle</text>
</g>
<!-- PB1_phi&#45;&gt;PB1_obs -->
<g id="edge6" class="edge">
<title>PB1_phi&#45;&gt;PB1_obs</title>
<path fill="none" stroke="#000000" d="M492.1887,-122.7539C508.1784,-112.0259 530.1011,-98.8275 551.2918,-91 585.5682,-78.3388 625.0532,-70.3169 659.3439,-65.2702"/>
<polygon fill="#000000" stroke="#000000" points="659.9235,-68.7231 669.3368,-63.861 658.946,-61.7917 659.9235,-68.7231"/>
</g>
<!-- PB1_mean -->
<g id="node4" class="node">
<title>PB1_mean</title>
<ellipse fill="none" stroke="#000000" cx="648.2918" cy="-140" rx="87.9851" ry="18"/>
<text text-anchor="middle" x="648.2918" y="-136.3" font-family="Times,serif" font-size="14.00" fill="#000000">PB1_mean ~ Normal</text>
</g>
<!-- PB1_mean&#45;&gt;PB1_obs -->
<g id="edge7" class="edge">
<title>PB1_mean&#45;&gt;PB1_obs</title>
<path fill="none" stroke="#000000" d="M668.6509,-122.3978C682.5242,-110.4033 701.0706,-94.3684 716.3264,-81.1785"/>
<polygon fill="#000000" stroke="#000000" points="718.6864,-83.7648 723.962,-74.5768 714.1082,-78.4695 718.6864,-83.7648"/>
</g>
<!-- PB1_logP -->
<g id="node5" class="node">
<title>PB1_logP</title>
<ellipse fill="none" stroke="#000000" cx="289.2918" cy="-212" rx="136.4758" ry="18"/>
<text text-anchor="middle" x="289.2918" y="-208.3" font-family="Times,serif" font-size="14.00" fill="#000000">PB1_logP ~ _ContinuousBounded</text>
</g>
<!-- PB1_logP&#45;&gt;PB1_period -->
<g id="edge1" class="edge">
<title>PB1_logP&#45;&gt;PB1_period</title>
<path fill="none" stroke="#000000" d="M289.2918,-193.8314C289.2918,-186.131 289.2918,-176.9743 289.2918,-168.4166"/>
<polygon fill="#000000" stroke="#000000" points="292.7919,-168.4132 289.2918,-158.4133 285.7919,-168.4133 292.7919,-168.4132"/>
</g>
<!-- PB1_omega -->
<g id="node6" class="node">
<title>PB1_omega</title>
<ellipse fill="none" stroke="#000000" cx="841.2918" cy="-140" rx="87.1846" ry="18"/>
<text text-anchor="middle" x="841.2918" y="-136.3" font-family="Times,serif" font-size="14.00" fill="#000000">PB1_omega ~ Angle</text>
</g>
<!-- PB1_omega&#45;&gt;PB1_obs -->
<g id="edge8" class="edge">
<title>PB1_omega&#45;&gt;PB1_obs</title>
<path fill="none" stroke="#000000" d="M820.7206,-122.3978C806.7028,-110.4033 787.9633,-94.3684 772.5486,-81.1785"/>
<polygon fill="#000000" stroke="#000000" points="774.707,-78.4189 764.8334,-74.5768 770.156,-83.7376 774.707,-78.4189"/>
</g>
<!-- PB1_logs_lc -->
<g id="node7" class="node">
<title>PB1_logs_lc</title>
<ellipse fill="none" stroke="#000000" cx="1040.2918" cy="-140" rx="94.4839" ry="18"/>
<text text-anchor="middle" x="1040.2918" y="-136.3" font-family="Times,serif" font-size="14.00" fill="#000000">PB1_logs_lc ~ Normal</text>
</g>
<!-- PB1_logs_lc&#45;&gt;PB1_obs -->
<g id="edge11" class="edge">
<title>PB1_logs_lc&#45;&gt;PB1_obs</title>
<path fill="none" stroke="#000000" d="M1009.6321,-122.723C989.6043,-112.1216 962.5685,-99.0748 937.2918,-91 901.8947,-79.6922 861.5715,-71.8444 826.9683,-66.5625"/>
<polygon fill="#000000" stroke="#000000" points="827.3031,-63.074 816.8985,-65.0725 826.2785,-69.9986 827.3031,-63.074"/>
</g>
<!-- PB1_asini -->
<g id="node8" class="node">
<title>PB1_asini</title>
<polygon fill="none" stroke="#000000" points="1317.7918,-158 1152.7918,-158 1152.7918,-122 1317.7918,-122 1317.7918,-158"/>
<text text-anchor="middle" x="1235.2918" y="-136.3" font-family="Times,serif" font-size="14.00" fill="#000000">PB1_asini ~ Deterministic</text>
</g>
<!-- PB1_asini&#45;&gt;PB1_obs -->
<g id="edge10" class="edge">
<title>PB1_asini&#45;&gt;PB1_obs</title>
<path fill="none" stroke="#000000" d="M1208.3689,-121.9015C1190.6644,-110.9724 1166.5478,-97.869 1143.2918,-91 1087.3723,-74.4833 933.4313,-65.0139 833.9301,-60.4478"/>
<polygon fill="#000000" stroke="#000000" points="834.0248,-56.9486 823.8773,-59.9946 833.7095,-63.9415 834.0248,-56.9486"/>
</g>
<!-- PB1_logasini -->
<g id="node9" class="node">
<title>PB1_logasini</title>
<ellipse fill="none" stroke="#000000" cx="1168.2918" cy="-212" rx="148.6738" ry="18"/>
<text text-anchor="middle" x="1168.2918" y="-208.3" font-family="Times,serif" font-size="14.00" fill="#000000">PB1_logasini ~ _ContinuousBounded</text>
</g>
<!-- PB1_logasini&#45;&gt;PB1_asini -->
<g id="edge2" class="edge">
<title>PB1_logasini&#45;&gt;PB1_asini</title>
<path fill="none" stroke="#000000" d="M1185.1987,-193.8314C1193.0731,-185.3694 1202.5838,-175.1489 1211.1931,-165.8971"/>
<polygon fill="#000000" stroke="#000000" points="1213.9072,-168.1183 1218.1572,-158.4133 1208.7827,-163.3497 1213.9072,-168.1183"/>
</g>
<!-- PB1_nu -->
<g id="node10" class="node">
<title>PB1_nu</title>
<polygon fill="none" stroke="#000000" points="1494.2918,-158 1342.2918,-158 1342.2918,-122 1494.2918,-122 1494.2918,-158"/>
<text text-anchor="middle" x="1418.2918" y="-136.3" font-family="Times,serif" font-size="14.00" fill="#000000">PB1_nu ~ Deterministic</text>
</g>
<!-- PB1_nu&#45;&gt;PB1_obs -->
<g id="edge9" class="edge">
<title>PB1_nu&#45;&gt;PB1_obs</title>
<path fill="none" stroke="#000000" d="M1392.1405,-121.9334C1374.6297,-110.8688 1350.5979,-97.6034 1327.2918,-91 1281.2526,-77.9555 986.0622,-65.66 834.2313,-60.1029"/>
<polygon fill="#000000" stroke="#000000" points="834.118,-56.5965 823.9973,-59.7306 833.8634,-63.5919 834.118,-56.5965"/>
</g>
<!-- PB1_lognu -->
<g id="node11" class="node">
<title>PB1_lognu</title>
<ellipse fill="none" stroke="#000000" cx="1424.2918" cy="-212" rx="89.0842" ry="18"/>
<text text-anchor="middle" x="1424.2918" y="-208.3" font-family="Times,serif" font-size="14.00" fill="#000000">PB1_lognu ~ Normal</text>
</g>
<!-- PB1_lognu&#45;&gt;PB1_nu -->
<g id="edge3" class="edge">
<title>PB1_lognu&#45;&gt;PB1_nu</title>
<path fill="none" stroke="#000000" d="M1422.7778,-193.8314C1422.1361,-186.131 1421.373,-176.9743 1420.6599,-168.4166"/>
<polygon fill="#000000" stroke="#000000" points="1424.1447,-168.088 1419.8262,-158.4133 1417.1689,-168.6694 1424.1447,-168.088"/>
</g>
</g>
</svg>
