<?xml version="1.0" encoding="UTF-8" standalone="no"?>
<!DOCTYPE svg PUBLIC "-//W3C//DTD SVG 1.1//EN"
 "http://www.w3.org/Graphics/SVG/1.1/DTD/svg11.dtd">
<!-- Generated by graphviz version 2.40.1 (20161225.0304)
 -->
<!-- Title: PB1 Pages: 1 -->
<svg width="1764pt" height="207pt"
 viewBox="0.00 0.00 1764.09 207.00" xmlns="http://www.w3.org/2000/svg" xmlns:xlink="http://www.w3.org/1999/xlink">
<g id="graph0" class="graph" transform="scale(1 1) rotate(0) translate(4 203)">
<title>PB1</title>
<polygon fill="#ffffff" stroke="transparent" points="-4,4 -4,-203 1760.0934,-203 1760.0934,4 -4,4"/>
<g id="clust1" class="cluster">
<title>cluster3</title>
<path fill="none" stroke="#000000" d="M1566.0934,-44C1566.0934,-44 1736.0934,-44 1736.0934,-44 1742.0934,-44 1748.0934,-50 1748.0934,-56 1748.0934,-56 1748.0934,-179 1748.0934,-179 1748.0934,-185 1742.0934,-191 1736.0934,-191 1736.0934,-191 1566.0934,-191 1566.0934,-191 1560.0934,-191 1554.0934,-185 1554.0934,-179 1554.0934,-179 1554.0934,-56 1554.0934,-56 1554.0934,-50 1560.0934,-44 1566.0934,-44"/>
<text text-anchor="middle" x="1736.0934" y="-51.8" font-family="Times,serif" font-size="14.00" fill="#000000">3</text>
</g>
<!-- PB1_obs -->
<g id="node1" class="node">
<title>PB1_obs</title>
<polygon fill="none" stroke="#000000" points="853.0934,-36 695.0934,-36 695.0934,0 853.0934,0 853.0934,-36"/>
<text text-anchor="middle" x="774.0934" y="-14.3" font-family="Times,serif" font-size="14.00" fill="#000000">PB1_obs ~ Deterministic</text>
</g>
<!-- PB1_phi -->
<g id="node2" class="node">
<title>PB1_phi</title>
<ellipse fill="none" stroke="#000000" cx="74.0934" cy="-93" rx="74.187" ry="18"/>
<text text-anchor="middle" x="74.0934" y="-89.3" font-family="Times,serif" font-size="14.00" fill="#000000">PB1_phi ~ Angle</text>
</g>
<!-- PB1_phi&#45;&gt;PB1_obs -->
<g id="edge9" class="edge">
<title>PB1_phi&#45;&gt;PB1_obs</title>
<path fill="none" stroke="#000000" d="M96.2809,-75.7862C112.237,-64.4788 134.79,-50.6 157.0934,-44 206.1976,-29.4691 525.6631,-22.1459 684.5937,-19.3654"/>
<polygon fill="#000000" stroke="#000000" points="684.8874,-22.861 694.8255,-19.1888 684.7665,-15.862 684.8874,-22.861"/>
</g>
<!-- PB1_omega -->
<g id="node3" class="node">
<title>PB1_omega</title>
<ellipse fill="none" stroke="#000000" cx="253.0934" cy="-93" rx="87.1846" ry="18"/>
<text text-anchor="middle" x="253.0934" y="-89.3" font-family="Times,serif" font-size="14.00" fill="#000000">PB1_omega ~ Angle</text>
</g>
<!-- PB1_omega&#45;&gt;PB1_obs -->
<g id="edge8" class="edge">
<title>PB1_omega&#45;&gt;PB1_obs</title>
<path fill="none" stroke="#000000" d="M281.1067,-75.7186C300.7627,-64.5353 328.0798,-50.83 354.0934,-44 414.2715,-28.1999 580.2981,-21.915 684.6821,-19.4781"/>
<polygon fill="#000000" stroke="#000000" points="684.9803,-22.9723 694.8987,-19.2472 684.8221,-15.9741 684.9803,-22.9723"/>
</g>
<!-- PB1_logw0 -->
<g id="node4" class="node">
<title>PB1_logw0</title>
<ellipse fill="none" stroke="#000000" cx="353.0934" cy="-165" rx="142.1749" ry="18"/>
<text text-anchor="middle" x="353.0934" y="-161.3" font-family="Times,serif" font-size="14.00" fill="#000000">PB1_logw0 ~ _ContinuousBounded</text>
</g>
<!-- PB1_logw0&#45;&gt;PB1_obs -->
<g id="edge7" class="edge">
<title>PB1_logw0&#45;&gt;PB1_obs</title>
<path fill="none" stroke="#000000" d="M352.2455,-146.7888C352.0848,-119.6292 356.2628,-69.0324 387.0934,-44 398.4839,-34.7517 573.7816,-26.0436 684.4995,-21.4278"/>
<polygon fill="#000000" stroke="#000000" points="684.8261,-24.9173 694.6731,-21.0075 684.5371,-17.9233 684.8261,-24.9173"/>
</g>
<!-- PB1_logS0 -->
<g id="node11" class="node">
<title>PB1_logS0</title>
<polygon fill="none" stroke="#000000" points="567.5934,-111 396.5934,-111 396.5934,-75 567.5934,-75 567.5934,-111"/>
<text text-anchor="middle" x="482.0934" y="-89.3" font-family="Times,serif" font-size="14.00" fill="#000000">PB1_logS0 ~ Deterministic</text>
</g>
<!-- PB1_logw0&#45;&gt;PB1_logS0 -->
<g id="edge4" class="edge">
<title>PB1_logw0&#45;&gt;PB1_logS0</title>
<path fill="none" stroke="#000000" d="M384.6504,-147.3868C401.4192,-138.0275 422.2489,-126.4016 440.3402,-116.3041"/>
<polygon fill="#000000" stroke="#000000" points="442.489,-119.1131 449.5152,-111.1832 439.0775,-113.0007 442.489,-119.1131"/>
</g>
<!-- PB1_eccen -->
<g id="node5" class="node">
<title>PB1_eccen</title>
<ellipse fill="none" stroke="#000000" cx="678.0934" cy="-93" rx="92.0841" ry="18"/>
<text text-anchor="middle" x="678.0934" y="-89.3" font-family="Times,serif" font-size="14.00" fill="#000000">PB1_eccen ~ Uniform</text>
</g>
<!-- PB1_eccen&#45;&gt;PB1_obs -->
<g id="edge10" class="edge">
<title>PB1_eccen&#45;&gt;PB1_obs</title>
<path fill="none" stroke="#000000" d="M700.8441,-75.226C713.3334,-65.4688 729.0108,-53.2208 742.654,-42.5621"/>
<polygon fill="#000000" stroke="#000000" points="745.1137,-45.0819 750.8392,-36.1674 740.8042,-39.5658 745.1137,-45.0819"/>
</g>
<!-- PB1_logpower -->
<g id="node6" class="node">
<title>PB1_logpower</title>
<ellipse fill="none" stroke="#000000" cx="616.0934" cy="-165" rx="102.8821" ry="18"/>
<text text-anchor="middle" x="616.0934" y="-161.3" font-family="Times,serif" font-size="14.00" fill="#000000">PB1_logpower ~ Normal</text>
</g>
<!-- PB1_logpower&#45;&gt;PB1_logS0 -->
<g id="edge5" class="edge">
<title>PB1_logpower&#45;&gt;PB1_logS0</title>
<path fill="none" stroke="#000000" d="M583.9971,-147.7542C566.2173,-138.2009 543.8877,-126.2029 524.666,-115.8748"/>
<polygon fill="#000000" stroke="#000000" points="526.2634,-112.7599 515.7978,-111.1098 522.9501,-118.9262 526.2634,-112.7599"/>
</g>
<!-- PB1_asini -->
<g id="node7" class="node">
<title>PB1_asini</title>
<polygon fill="none" stroke="#000000" points="953.5934,-111 788.5934,-111 788.5934,-75 953.5934,-75 953.5934,-111"/>
<text text-anchor="middle" x="871.0934" y="-89.3" font-family="Times,serif" font-size="14.00" fill="#000000">PB1_asini ~ Deterministic</text>
</g>
<!-- PB1_asini&#45;&gt;PB1_obs -->
<g id="edge11" class="edge">
<title>PB1_asini&#45;&gt;PB1_obs</title>
<path fill="none" stroke="#000000" d="M847.6124,-74.8446C835.0757,-65.1513 819.4677,-53.0832 805.8619,-42.5632"/>
<polygon fill="#000000" stroke="#000000" points="807.7464,-39.5961 797.6944,-36.2482 803.4646,-45.1339 807.7464,-39.5961"/>
</g>
<!-- PB1_logs_lc -->
<g id="node8" class="node">
<title>PB1_logs_lc</title>
<ellipse fill="none" stroke="#000000" cx="1066.0934" cy="-93" rx="94.4839" ry="18"/>
<text text-anchor="middle" x="1066.0934" y="-89.3" font-family="Times,serif" font-size="14.00" fill="#000000">PB1_logs_lc ~ Normal</text>
</g>
<!-- PB1_logs_lc&#45;&gt;PB1_obs -->
<g id="edge12" class="edge">
<title>PB1_logs_lc&#45;&gt;PB1_obs</title>
<path fill="none" stroke="#000000" d="M1036.1139,-75.891C1015.8386,-65.0784 988.1133,-51.7325 962.0934,-44 930.601,-34.6411 895.1206,-28.6284 863.5362,-24.7749"/>
<polygon fill="#000000" stroke="#000000" points="863.7662,-21.2781 853.4285,-23.5982 862.9566,-28.2312 863.7662,-21.2781"/>
</g>
<!-- PB1_period -->
<g id="node9" class="node">
<title>PB1_period</title>
<polygon fill="none" stroke="#000000" points="1352.0934,-111 1178.0934,-111 1178.0934,-75 1352.0934,-75 1352.0934,-111"/>
<text text-anchor="middle" x="1265.0934" y="-89.3" font-family="Times,serif" font-size="14.00" fill="#000000">PB1_period ~ Deterministic</text>
</g>
<!-- PB1_period&#45;&gt;PB1_obs -->
<g id="edge13" class="edge">
<title>PB1_period&#45;&gt;PB1_obs</title>
<path fill="none" stroke="#000000" d="M1236.9363,-74.7591C1218.4367,-63.7732 1193.2671,-50.66 1169.0934,-44 1113.6607,-28.7279 961.9377,-22.3124 863.4825,-19.7003"/>
<polygon fill="#000000" stroke="#000000" points="863.3232,-16.1952 853.2365,-19.4371 863.1433,-23.1929 863.3232,-16.1952"/>
</g>
<!-- PB1_logasini -->
<g id="node10" class="node">
<title>PB1_logasini</title>
<ellipse fill="none" stroke="#000000" cx="886.0934" cy="-165" rx="148.6738" ry="18"/>
<text text-anchor="middle" x="886.0934" y="-161.3" font-family="Times,serif" font-size="14.00" fill="#000000">PB1_logasini ~ _ContinuousBounded</text>
</g>
<!-- PB1_logasini&#45;&gt;PB1_asini -->
<g id="edge2" class="edge">
<title>PB1_logasini&#45;&gt;PB1_asini</title>
<path fill="none" stroke="#000000" d="M882.3083,-146.8314C880.704,-139.131 878.7964,-129.9743 877.0136,-121.4166"/>
<polygon fill="#000000" stroke="#000000" points="880.3956,-120.4892 874.9295,-111.4133 873.5427,-121.9169 880.3956,-120.4892"/>
</g>
<!-- PB1_logS0&#45;&gt;PB1_obs -->
<g id="edge14" class="edge">
<title>PB1_logS0&#45;&gt;PB1_obs</title>
<path fill="none" stroke="#000000" d="M510.9149,-74.8045C529.1912,-64.1246 553.7183,-51.3259 577.0934,-44 597.1313,-37.72 642.662,-31.5331 684.9078,-26.7709"/>
<polygon fill="#000000" stroke="#000000" points="685.4364,-30.2339 694.9901,-25.6538 684.6654,-23.2765 685.4364,-30.2339"/>
</g>
<!-- PB1_logP -->
<g id="node12" class="node">
<title>PB1_logP</title>
<ellipse fill="none" stroke="#000000" cx="1265.0934" cy="-165" rx="136.4758" ry="18"/>
<text text-anchor="middle" x="1265.0934" y="-161.3" font-family="Times,serif" font-size="14.00" fill="#000000">PB1_logP ~ _ContinuousBounded</text>
</g>
<!-- PB1_logP&#45;&gt;PB1_period -->
<g id="edge1" class="edge">
<title>PB1_logP&#45;&gt;PB1_period</title>
<path fill="none" stroke="#000000" d="M1265.0934,-146.8314C1265.0934,-139.131 1265.0934,-129.9743 1265.0934,-121.4166"/>
<polygon fill="#000000" stroke="#000000" points="1268.5935,-121.4132 1265.0934,-111.4133 1261.5935,-121.4133 1268.5935,-121.4132"/>
</g>
<!-- PB1_mean -->
<g id="node13" class="node">
<title>PB1_mean</title>
<ellipse fill="none" stroke="#000000" cx="1458.0934" cy="-93" rx="87.9851" ry="18"/>
<text text-anchor="middle" x="1458.0934" y="-89.3" font-family="Times,serif" font-size="14.00" fill="#000000">PB1_mean ~ Normal</text>
</g>
<!-- PB1_mean&#45;&gt;PB1_obs -->
<g id="edge15" class="edge">
<title>PB1_mean&#45;&gt;PB1_obs</title>
<path fill="none" stroke="#000000" d="M1431.7279,-75.8118C1412.8806,-64.5161 1386.4638,-50.6409 1361.0934,-44 1314.3967,-31.7768 1015.8664,-23.4153 863.4204,-19.887"/>
<polygon fill="#000000" stroke="#000000" points="863.226,-16.3817 853.1484,-19.6515 863.0655,-23.3799 863.226,-16.3817"/>
</g>
<!-- PB1_nu -->
<g id="node14" class="node">
<title>PB1_nu</title>
<polygon fill="none" stroke="#000000" points="1721.0934,-111 1569.0934,-111 1569.0934,-75 1721.0934,-75 1721.0934,-111"/>
<text text-anchor="middle" x="1645.0934" y="-89.3" font-family="Times,serif" font-size="14.00" fill="#000000">PB1_nu ~ Deterministic</text>
</g>
<!-- PB1_nu&#45;&gt;PB1_obs -->
<g id="edge6" class="edge">
<title>PB1_nu&#45;&gt;PB1_obs</title>
<path fill="none" stroke="#000000" d="M1619.6952,-74.9853C1602.3796,-63.7902 1578.4383,-50.3585 1555.0934,-44 1489.9516,-26.2571 1053.8875,-20.3868 863.1405,-18.6532"/>
<polygon fill="#000000" stroke="#000000" points="863.1715,-15.1535 853.1407,-18.5641 863.1091,-22.1532 863.1715,-15.1535"/>
</g>
<!-- PB1_lognu -->
<g id="node15" class="node">
<title>PB1_lognu</title>
<ellipse fill="none" stroke="#000000" cx="1651.0934" cy="-165" rx="89.0842" ry="18"/>
<text text-anchor="middle" x="1651.0934" y="-161.3" font-family="Times,serif" font-size="14.00" fill="#000000">PB1_lognu ~ Normal</text>
</g>
<!-- PB1_lognu&#45;&gt;PB1_nu -->
<g id="edge3" class="edge">
<title>PB1_lognu&#45;&gt;PB1_nu</title>
<path fill="none" stroke="#000000" d="M1649.5794,-146.8314C1648.9377,-139.131 1648.1746,-129.9743 1647.4615,-121.4166"/>
<polygon fill="#000000" stroke="#000000" points="1650.9463,-121.088 1646.6279,-111.4133 1643.9705,-121.6694 1650.9463,-121.088"/>
</g>
</g>
</svg>
